<svg width="89" height="21" viewBox="0 0 89 21" fill="none" xmlns="http://www.w3.org/2000/svg">
<path d="M30.72 6.74H26.59V9.484H30.58V11.024H26.59V15H24.98V5.2H30.72V6.74ZM37.6721 8H39.1841V15H37.6721V13.992C37.1028 14.7853 36.2861 15.182 35.2221 15.182C34.2608 15.182 33.4394 14.8273 32.7581 14.118C32.0768 13.3993 31.7361 12.5267 31.7361 11.5C31.7361 10.464 32.0768 9.59133 32.7581 8.882C33.4394 8.17267 34.2608 7.818 35.2221 7.818C36.2861 7.818 37.1028 8.21 37.6721 8.994V8ZM33.8781 13.11C34.2981 13.53 34.8254 13.74 35.4601 13.74C36.0948 13.74 36.6221 13.53 37.0421 13.11C37.4621 12.6807 37.6721 12.144 37.6721 11.5C37.6721 10.856 37.4621 10.324 37.0421 9.904C36.6221 9.47467 36.0948 9.26 35.4601 9.26C34.8254 9.26 34.2981 9.47467 33.8781 9.904C33.4581 10.324 33.2481 10.856 33.2481 11.5C33.2481 12.144 33.4581 12.6807 33.8781 13.11ZM44.2505 15.182C43.1958 15.182 42.3138 14.8273 41.6045 14.118C40.9045 13.4087 40.5545 12.536 40.5545 11.5C40.5545 10.4547 40.9045 9.582 41.6045 8.882C42.3138 8.17267 43.1958 7.818 44.2505 7.818C44.9318 7.818 45.5525 7.98133 46.1125 8.308C46.6725 8.63467 47.0925 9.07333 47.3725 9.624L46.0705 10.38C45.9118 10.044 45.6691 9.78267 45.3425 9.596C45.0251 9.4 44.6565 9.302 44.2365 9.302C43.6205 9.302 43.1025 9.512 42.6825 9.932C42.2718 10.352 42.0665 10.8747 42.0665 11.5C42.0665 12.1253 42.2718 12.648 42.6825 13.068C43.1025 13.488 43.6205 13.698 44.2365 13.698C44.6471 13.698 45.0158 13.6 45.3425 13.404C45.6785 13.208 45.9305 12.9467 46.0985 12.62L47.4005 13.362C47.1018 13.922 46.6725 14.3653 46.1125 14.692C45.5525 15.0187 44.9318 15.182 44.2505 15.182ZM49.574 12.144C49.686 12.676 49.9426 13.0867 50.344 13.376C50.7453 13.656 51.2353 13.796 51.814 13.796C52.6166 13.796 53.2186 13.5067 53.62 12.928L54.866 13.656C54.1753 14.6733 53.1533 15.182 51.8 15.182C50.6613 15.182 49.742 14.8367 49.042 14.146C48.342 13.446 47.992 12.564 47.992 11.5C47.992 10.4547 48.3373 9.582 49.028 8.882C49.7186 8.17267 50.6053 7.818 51.688 7.818C52.7146 7.818 53.5546 8.17733 54.208 8.896C54.8706 9.61467 55.202 10.4873 55.202 11.514C55.202 11.6727 55.1833 11.8827 55.146 12.144H49.574ZM49.56 10.912H53.676C53.5733 10.3427 53.3353 9.91333 52.962 9.624C52.598 9.33467 52.1686 9.19 51.674 9.19C51.114 9.19 50.6473 9.344 50.274 9.652C49.9006 9.96 49.6626 10.38 49.56 10.912ZM60.4944 7.818C61.4557 7.818 62.2771 8.17267 62.9584 8.882C63.6397 9.59133 63.9804 10.464 63.9804 11.5C63.9804 12.5267 63.6397 13.3993 62.9584 14.118C62.2771 14.8273 61.4557 15.182 60.4944 15.182C59.4304 15.182 58.6137 14.7853 58.0444 13.992V15H56.5324V5.2H58.0444V8.994C58.6137 8.21 59.4304 7.818 60.4944 7.818ZM58.6744 13.11C59.0944 13.53 59.6217 13.74 60.2564 13.74C60.8911 13.74 61.4184 13.53 61.8384 13.11C62.2584 12.6807 62.4684 12.144 62.4684 11.5C62.4684 10.856 62.2584 10.324 61.8384 9.904C61.4184 9.47467 60.8911 9.26 60.2564 9.26C59.6217 9.26 59.0944 9.47467 58.6744 9.904C58.2544 10.324 58.0444 10.856 58.0444 11.5C58.0444 12.144 58.2544 12.6807 58.6744 13.11ZM68.6548 15.182C67.6281 15.182 66.7554 14.8273 66.0368 14.118C65.3181 13.4087 64.9588 12.536 64.9588 11.5C64.9588 10.464 65.3181 9.59133 66.0368 8.882C66.7554 8.17267 67.6281 7.818 68.6548 7.818C69.6908 7.818 70.5634 8.17267 71.2728 8.882C71.9914 9.59133 72.3508 10.464 72.3508 11.5C72.3508 12.536 71.9914 13.4087 71.2728 14.118C70.5634 14.8273 69.6908 15.182 68.6548 15.182ZM67.1008 13.082C67.5208 13.502 68.0388 13.712 68.6548 13.712C69.2708 13.712 69.7888 13.502 70.2088 13.082C70.6288 12.662 70.8388 12.1347 70.8388 11.5C70.8388 10.8653 70.6288 10.338 70.2088 9.918C69.7888 9.498 69.2708 9.288 68.6548 9.288C68.0388 9.288 67.5208 9.498 67.1008 9.918C66.6808 10.338 66.4708 10.8653 66.4708 11.5C66.4708 12.1347 66.6808 12.662 67.1008 13.082ZM77.0219 15.182C75.9953 15.182 75.1226 14.8273 74.4039 14.118C73.6853 13.4087 73.3259 12.536 73.3259 11.5C73.3259 10.464 73.6853 9.59133 74.4039 8.882C75.1226 8.17267 75.9953 7.818 77.0219 7.818C78.0579 7.818 78.9306 8.17267 79.6399 8.882C80.3586 9.59133 80.7179 10.464 80.7179 11.5C80.7179 12.536 80.3586 13.4087 79.6399 14.118C78.9306 14.8273 78.0579 15.182 77.0219 15.182ZM75.4679 13.082C75.8879 13.502 76.4059 13.712 77.0219 13.712C77.6379 13.712 78.1559 13.502 78.5759 13.082C78.9959 12.662 79.2059 12.1347 79.2059 11.5C79.2059 10.8653 78.9959 10.338 78.5759 9.918C78.1559 9.498 77.6379 9.288 77.0219 9.288C76.4059 9.288 75.8879 9.498 75.4679 9.918C75.0479 10.338 74.8379 10.8653 74.8379 11.5C74.8379 12.1347 75.0479 12.662 75.4679 13.082ZM88.2731 15H86.4671L83.5971 11.766V15H82.0851V5.2H83.5971V11.094L86.3131 8H88.1611L85.0811 11.43L88.2731 15Z" fill="#017EFA"/>
<path d="M15.8431 2.26453H3.40458C3.10544 2.26453 2.86377 2.55366 2.86377 2.91155V17.793C2.86377 18.1509 3.10544 18.44 3.40458 18.44H15.8431C16.1423 18.44 16.3839 18.1509 16.3839 17.793V2.91155C16.3839 2.55366 16.1423 2.26453 15.8431 2.26453ZM14.2816 6.98576H13.2016C12.3549 6.98576 12.191 7.46698 12.191 8.17466V9.73357H14.2123L13.9486 12.1741H12.191V18.44H10.0835V12.1761H8.32085V9.73357H10.0835V7.93405C10.0835 5.84538 11.1499 4.70703 12.7081 4.70703C13.4551 4.70703 14.0957 4.77375 14.2832 4.80408V6.98576H14.2816Z" fill="#017EFA"/>
</svg>
