<svg width="13" height="13" viewBox="0 0 13 13" fill="none" xmlns="http://www.w3.org/2000/svg">
<path fill-rule="evenodd" clip-rule="evenodd" d="M11.9433 0.181695C11.7012 -0.060565 11.3094 -0.060565 11.068 0.181695C11.0068 0.243034 10.9133 0.257918 10.8328 0.226319C10.1687 -0.0289526 9.38754 0.111085 8.85213 0.647031L2.12147 7.38444C2.02429 7.48109 2.02429 7.6385 2.12147 7.73515L5.27264 10.8895C5.3692 10.9861 5.5258 10.9861 5.62236 10.8895L12.353 4.15205C12.889 3.6161 13.0289 2.83417 12.7733 2.16935C12.7424 2.08818 12.7572 1.99524 12.8185 1.9339C13.0605 1.69164 13.0605 1.29944 12.8185 1.0578L11.9433 0.181695ZM11.627 2.77593C11.7235 2.87259 11.7235 3.02995 11.627 3.1266L5.62236 9.13729C5.5258 9.23394 5.3692 9.23394 5.27264 9.13729L3.87191 7.73515C3.77535 7.6385 3.77535 7.48109 3.87191 7.38444L9.87653 1.37444C9.97309 1.27716 10.1297 1.27716 10.2262 1.37444L11.627 2.77593Z" fill="#272EB5"/>
<path d="M0.312823 12.991C0.128371 13.0412 -0.0412253 12.8715 0.0089112 12.6869L1.09582 8.6979C1.14595 8.51388 1.37559 8.45317 1.5099 8.58762L4.40792 11.4892C4.54224 11.6236 4.48158 11.8529 4.29775 11.9031L0.312823 12.991Z" fill="#272EB5"/>
</svg>
