<svg width="20" height="20" viewBox="0 0 20 20" fill="none" xmlns="http://www.w3.org/2000/svg">
<path d="M1 5C1 3.11438 1 2.17157 1.58579 1.58579C2.17157 1 3.11438 1 5 1H15C16.8856 1 17.8284 1 18.4142 1.58579C19 2.17157 19 3.11438 19 5V15C19 16.8856 19 17.8284 18.4142 18.4142C17.8284 19 16.8856 19 15 19H5C3.11438 19 2.17157 19 1.58579 18.4142C1 17.8284 1 16.8856 1 15V5Z" stroke="#CCD2E3" stroke-width="2"/>
<path d="M1 5H4C4.98142 5 5.47214 5 5.89443 5.21115C6.31672 5.42229 6.61115 5.81486 7.2 6.6L7.8 7.4C8.38885 8.18514 8.68328 8.57771 9.10557 8.78885C9.52786 9 10.0186 9 11 9H16C16.9319 9 17.3978 9 17.7654 8.84776C18.2554 8.64477 18.6448 8.25542 18.8478 7.76537C19 7.39782 19 6.93188 19 6V6" stroke="#CCD2E3" stroke-width="2"/>
<path d="M5 14H13" stroke="#48B4E9" stroke-width="2" stroke-linecap="round"/>
</svg>
