<svg width="27" height="24" viewBox="0 0 27 24" fill="none" xmlns="http://www.w3.org/2000/svg">
<path d="M11.5087 18C13.404 17.9996 15.2447 17.4054 16.7377 16.312L21.4317 20.708L22.9416 19.294L18.2475 14.898C19.4157 13.4997 20.0506 11.7754 20.0511 10C20.0511 5.589 16.2187 2 11.5087 2C6.79863 2 2.96631 5.589 2.96631 10C2.96631 14.411 6.79863 18 11.5087 18ZM11.5087 4C15.042 4 17.9155 6.691 17.9155 10C17.9155 13.309 15.042 16 11.5087 16C7.97534 16 5.1019 13.309 5.1019 10C5.1019 6.691 7.97534 4 11.5087 4Z" fill="#828282"/>
</svg>
