<svg width="10" height="11" viewBox="0 0 10 11" fill="none" xmlns="http://www.w3.org/2000/svg">
<path d="M2.18018 8.72071H7.63063V7.63062H2.18018V8.72071Z" fill="#48B4E9"/>
<path d="M7.63063 6.54053H2.18018V5.45044H7.63063V6.54053Z" fill="#48B4E9"/>
<path d="M2.18018 4.36035H4.36036V3.27026H2.18018V4.36035Z" fill="#48B4E9"/>
<path fill-rule="evenodd" clip-rule="evenodd" d="M1.63514 0C0.73205 0 0 0.731995 0 1.63514V9.26577C0 10.1689 0.73205 10.9009 1.63514 10.9009H8.17568C9.07876 10.9009 9.81081 10.1689 9.81081 9.26577V3.81532C9.81081 1.70817 8.10264 0 5.9955 0H1.63514ZM1.63514 1.09009H5.45045V3.81532H8.72072V9.26577C8.72072 9.56663 8.4767 9.81081 8.17568 9.81081H1.63514C1.33411 9.81081 1.09009 9.56663 1.09009 9.26577V1.63514C1.09009 1.33427 1.33411 1.09009 1.63514 1.09009ZM6.54054 1.14458C7.41877 1.32281 8.14368 1.92346 8.49398 2.72523H6.54054V1.14458Z" fill="#CCD2E3"/>
</svg>
