<svg width="21" height="21" viewBox="0 0 21 21" fill="none" xmlns="http://www.w3.org/2000/svg">
<path d="M15.42 1.47168C11.8254 1.47168 10.5047 5.14504 10.5047 5.14504C10.5047 5.14504 9.20206 1.47168 5.58284 1.47168C2.86268 1.47168 -0.238098 3.62746 0.907059 8.52801C2.05221 13.4286 10.5146 19.5333 10.5146 19.5333C10.5146 19.5333 18.9457 13.4286 20.0925 8.52801C21.2377 3.62746 18.36 1.47168 15.42 1.47168Z" fill="#F44336"/>
<path d="M5.02846 1.83754C7.85033 1.83754 9.25143 4.87106 9.70424 6.09988C9.76822 6.27543 10.0127 6.28035 10.0865 6.10973L10.4999 5.1434C9.91752 3.28293 8.31627 1.47168 5.58299 1.47168C4.45096 1.47168 3.25494 1.84574 2.32471 2.63488C3.14666 2.09512 4.10971 1.83754 5.02846 1.83754Z" fill="#CC3333"/>
<path d="M15.4201 1.47168C14.5522 1.47168 13.7614 1.66035 13.1446 2.04098C13.5777 1.87363 14.1142 1.83754 14.6457 1.83754C17.3052 1.83754 19.6857 3.85387 18.6111 8.51488C17.6891 12.5164 12.3013 17.371 10.6557 19.2232C10.5507 19.3414 10.5146 19.5317 10.5146 19.5317C10.5146 19.5317 18.9458 13.4269 20.0926 8.52637C21.2378 3.62746 18.365 1.47168 15.4201 1.47168Z" fill="#CC3333"/>
<path d="M2.79522 4.07203C3.41045 3.30422 4.50967 2.6693 5.44155 3.40102C5.94522 3.79641 5.72538 4.60688 5.27421 4.94813C4.61795 5.44688 4.04702 5.74711 3.6467 6.52805C3.40717 6.99727 3.2628 7.51078 3.18897 8.03414C3.15944 8.24086 2.88873 8.29172 2.78702 8.10961C2.09467 6.88242 1.8978 5.19258 2.79522 4.07203Z" fill="#FF8A80"/>
<path d="M12.6589 5.6863C12.3701 5.6863 12.1667 5.4074 12.2717 5.13833C12.4669 4.64287 12.7196 4.1638 13.0231 3.73724C13.4726 3.10724 14.3274 2.73974 14.8688 3.12201C15.4233 3.51248 15.3511 4.29341 14.9623 4.67076C14.1272 5.47958 13.0739 5.6863 12.6589 5.6863Z" fill="#FF8A80"/>
</svg>
