<svg width="21" height="21" viewBox="0 0 21 21" fill="none" xmlns="http://www.w3.org/2000/svg">
<path d="M3.5 7C1.56683 7 0 5.43317 0 3.5C0 1.56683 1.56683 0 3.5 0C5.43317 0 7 1.56683 7 3.5C7 3.64583 6.99067 3.7905 6.97317 3.93284L15.0698 7.98117C15.6998 7.37334 16.5562 7 17.5 7C19.4332 7 21 8.56683 21 10.5C21 12.4332 19.4332 14 17.5 14C16.5562 14 15.6998 13.6267 15.0698 13.0188L6.97317 17.0672C6.99067 17.2095 7 17.3542 7 17.5C7 19.4332 5.43317 21 3.5 21C1.56683 21 0 19.4332 0 17.5C0 15.5668 1.56683 14 3.5 14C4.44383 14 5.30016 14.3733 5.93016 14.9812L14.0268 10.9328C14.0093 10.7905 14 10.6458 14 10.5C14 10.3542 14.0093 10.2095 14.0268 10.0672L5.93016 6.01883C5.30016 6.62666 4.44383 7 3.5 7Z" fill="#818181"/>
</svg>
