<svg width="21" height="21" viewBox="0 0 21 21" fill="none" xmlns="http://www.w3.org/2000/svg">
<path d="M11.1647 1.18617L13.373 6.22289C13.456 6.41244 13.5884 6.57623 13.7564 6.69714C13.9244 6.81806 14.1217 6.89168 14.3278 6.91031L19.7074 7.39266C20.3161 7.48125 20.5589 8.22773 20.1176 8.65758L16.0652 12.0619C15.7371 12.3375 15.5878 12.7706 15.678 13.189L16.856 18.7031C16.9594 19.3085 16.3244 19.7712 15.7798 19.4841L11.0843 16.7344C10.9072 16.6304 10.7056 16.5756 10.5002 16.5756C10.2949 16.5756 10.0933 16.6304 9.91616 16.7344L5.22069 19.4824C4.67765 19.7679 4.04108 19.3069 4.14444 18.7015L5.32241 13.1873C5.411 12.769 5.26335 12.3359 4.93522 12.0602L0.881239 8.65922C0.441551 8.23102 0.684364 7.48289 1.2914 7.3943L6.671 6.91195C6.87712 6.89332 7.07445 6.8197 7.24241 6.69879C7.41036 6.57787 7.54279 6.41408 7.62585 6.22453L9.83413 1.18781C10.1081 0.636563 10.8923 0.636563 11.1647 1.18617Z" fill="#FDD835"/>
<path d="M11.0038 6.52475L10.6298 2.81366C10.615 2.60694 10.5724 2.25256 10.9038 2.25256C11.1663 2.25256 11.309 2.79889 11.309 2.79889L12.4312 5.77827C12.8545 6.91194 12.6806 7.30077 12.272 7.53046C11.8028 7.79295 11.1105 7.58788 11.0038 6.52475Z" fill="#FFFF8D"/>
<path d="M15.6322 11.7321L18.8511 9.22035C19.0102 9.08746 19.2973 8.87582 19.0676 8.63465C18.8855 8.44433 18.3933 8.71832 18.3933 8.71832L15.5764 9.81918C14.7364 10.1096 14.1786 10.5394 14.1294 11.0808C14.0654 11.8027 14.7134 12.3589 15.6322 11.7321Z" fill="#F4B400"/>
</svg>
