<svg width="21" height="21" viewBox="0 0 21 21" fill="none" xmlns="http://www.w3.org/2000/svg">
<path d="M14.0305 19.9615C12.6146 19.95 10.49 19.8943 8.39987 19.6974C6.96104 19.5612 5.47463 19.3463 4.34588 18.7064C4.0276 18.526 3.67979 18.4817 3.37135 18.444C3.2401 18.4275 3.11705 18.4128 3.01205 18.3882C2.21143 18.1995 1.65198 17.5072 1.6487 16.7049L1.63721 11.3318C1.63557 10.5886 2.16549 9.96684 2.89885 9.852C2.91198 9.85036 2.92346 9.84707 2.93659 9.84379C3.02682 9.81426 5.1826 9.11207 6.80682 7.84223C7.57135 7.24504 8.22596 6.32465 8.55901 5.38129C8.89041 4.44122 8.88877 3.41583 8.88713 2.59223C8.88713 2.06067 8.88549 1.3995 9.02987 1.3027C9.38096 1.07137 9.76815 0.953247 10.1799 0.953247C11.4465 0.953247 12.7393 2.10989 12.7902 3.28786C12.8263 4.10489 12.5523 5.06958 12.2881 6.00145C11.9764 7.10559 11.7057 8.05879 11.9502 8.70684C11.9863 8.80364 12.0781 8.86598 12.1799 8.86598L13.3759 8.82497H13.3874C14.7261 8.82497 15.8155 9.91434 15.8171 11.2515L15.8253 18.1765C15.8253 18.654 15.6416 19.1018 15.3036 19.4382C15.1384 19.6045 14.9418 19.7363 14.7252 19.8262C14.5086 19.916 14.2764 19.962 14.042 19.9615H14.0305Z" fill="url(#paint0_radial_121_1663)"/>
<path d="M10.1799 1.19934C11.3054 1.19934 12.4981 2.25918 12.5441 3.2977C12.5785 4.07536 12.3111 5.02036 12.0519 5.93418C11.7271 7.07934 11.4481 8.06864 11.7205 8.79215C11.7558 8.88581 11.8189 8.96647 11.9013 9.02334C11.9836 9.08021 12.0814 9.1106 12.1815 9.11043H12.1996L13.3808 9.06942H13.3906C14.5932 9.06942 15.5727 10.0472 15.5743 11.2515L15.5825 18.1765C15.5825 18.5867 15.4234 18.9739 15.133 19.2643C14.8426 19.5547 14.4571 19.7154 14.0453 19.7154H14.0321C12.6212 19.704 10.5031 19.6482 8.42283 19.4529C7.0119 19.32 5.55502 19.11 4.46729 18.4932C4.10635 18.2881 3.71588 18.2405 3.40252 18.2011C3.27784 18.1864 3.16135 18.1716 3.06948 18.1486C2.38041 17.9862 1.89807 17.3923 1.89643 16.7049L1.8833 11.3318C1.88166 10.7117 2.32463 10.1916 2.93659 10.0964C2.96119 10.0932 2.98744 10.0866 3.01041 10.0784C3.10229 10.0489 5.29744 9.33192 6.95612 8.03582C7.7551 7.41075 8.44088 6.44934 8.78869 5.46333C9.13487 4.48387 9.13322 3.43551 9.13158 2.59223C9.13158 2.19192 9.12994 1.65051 9.19885 1.48645C9.49126 1.29793 9.83204 1.19821 10.1799 1.19934ZM10.1799 0.707153C9.74518 0.707153 9.30549 0.825278 8.89369 1.09762C8.36213 1.44872 8.93799 3.56184 8.32604 5.29762C7.95854 6.33942 7.25799 7.17614 6.65424 7.647C5.04643 8.90372 2.86112 9.60918 2.86112 9.60918C2.01291 9.74207 1.38948 10.4738 1.39112 11.3335L1.40424 16.7065C1.40752 17.6318 2.05557 18.4144 2.95627 18.6277C3.32049 18.713 3.8176 18.69 4.22448 18.9214C5.31221 19.5382 6.70674 19.7843 8.3769 19.9418C10.4441 20.1371 12.5441 20.1945 14.0288 20.2076H14.0453C15.1658 20.2076 16.0764 19.2987 16.0747 18.1765L16.0665 11.2515C16.0649 9.77325 14.8656 8.57887 13.3906 8.57887H13.371L12.1831 8.61989C11.773 7.53051 13.1167 5.07942 13.0379 3.27637C12.9805 1.99504 11.6138 0.707153 10.1799 0.707153Z" fill="#EDA600"/>
<path d="M10.8478 10.2539C11.1562 11.0742 11.1595 12.3539 10.8478 13.1447C10.3966 14.2866 9.29246 15.2857 8.0177 15.4613C7.70598 15.5039 7.89137 15.791 8.20145 15.7484C9.58121 15.5581 11.4482 14.9986 11.9339 13.7599C13.2661 10.3557 11.7075 8.57229 11.0118 9.10385C10.6772 9.36307 10.6739 9.78963 10.8478 10.2539Z" fill="#EDA600"/>
<path d="M14.1553 11.4712C12.7837 11.4712 11.1349 11.2169 11.0643 10.0012C11.0447 9.65341 11.1497 9.36138 11.3859 9.11037C12.0077 8.45084 13.5351 8.08826 15.6876 8.08826C16.4686 8.08826 17.0379 8.13912 17.0444 8.13912C17.051 8.13912 17.0592 8.14076 17.0657 8.14076H17.0805C17.1035 8.13912 17.1248 8.13912 17.1478 8.13912C17.845 8.13912 18.4275 8.76748 18.475 9.56974C18.5243 10.3999 17.9779 11.1086 17.2577 11.1497C17.2462 11.1497 17.2331 11.1513 17.2216 11.1546C17.2068 11.1562 15.6876 11.4712 14.1553 11.4712Z" fill="url(#paint1_radial_121_1663)"/>
<path d="M15.6893 8.33435C16.4571 8.33435 17.0182 8.38357 17.0231 8.38357C17.0379 8.38521 17.0526 8.38521 17.0674 8.38521C17.0773 8.38521 17.0871 8.38521 17.0953 8.38357C17.1133 8.38193 17.1314 8.38193 17.1478 8.38193C17.7138 8.38193 18.1896 8.90857 18.229 9.57959C18.2487 9.9274 18.1502 10.2572 17.9517 10.5098C17.7663 10.7461 17.5137 10.8839 17.243 10.9003C17.2183 10.9019 17.1937 10.9052 17.1708 10.9101C17.156 10.9134 15.6581 11.2235 14.1553 11.2235C13.2825 11.2235 12.5901 11.1218 12.0996 10.9216C11.4253 10.646 11.3252 10.2555 11.3105 9.98646C11.2941 9.70591 11.3761 9.48115 11.5664 9.27771C12.1324 8.67888 13.6352 8.33435 15.6893 8.33435ZM15.6893 7.84216C13.8157 7.84216 10.7083 8.12599 10.8183 10.016C10.8987 11.381 12.5458 11.7173 14.1553 11.7173C15.7319 11.7173 17.2725 11.3941 17.2725 11.3941C18.1289 11.3433 18.7786 10.5197 18.7212 9.55334C18.667 8.61818 17.9714 7.89138 17.1494 7.89138C17.1215 7.89138 17.0953 7.89138 17.0674 7.89302C17.0674 7.89302 16.4915 7.84216 15.6893 7.84216Z" fill="#EDA600"/>
<path d="M15.184 14.5934C13.394 14.5934 11.2612 14.2932 11.2612 12.8593C11.2612 11.4254 13.394 11.1251 15.184 11.1251C16.7015 11.1251 18.0846 11.3466 18.0977 11.3482C18.1108 11.3499 18.124 11.3515 18.1371 11.3515C18.8606 11.3515 19.3643 12.1161 19.3643 12.8018C19.3643 13.5254 18.8278 14.3654 18.1371 14.3654C18.124 14.3654 18.1108 14.367 18.0977 14.3686C18.0829 14.3719 16.6999 14.5934 15.184 14.5934Z" fill="url(#paint2_radial_121_1663)"/>
<path d="M15.184 11.3728C16.6802 11.3728 18.0452 11.591 18.0583 11.5926C18.0846 11.5976 18.1108 11.5992 18.1371 11.5992C18.6982 11.5992 19.1182 12.2358 19.1182 12.8034C19.1182 13.3957 18.6654 14.1208 18.1371 14.1208C18.1108 14.1208 18.0846 14.1225 18.0583 14.1274C18.0452 14.1291 16.6786 14.3473 15.184 14.3473C14.0634 14.3473 13.1726 14.2291 12.5344 13.9945C11.614 13.6566 11.5073 13.1841 11.5073 12.8592C11.5073 12.5327 11.614 12.0619 12.5344 11.7239C13.1709 11.4909 14.0634 11.3728 15.184 11.3728ZM15.184 10.8806C13.2267 10.8806 11.0151 11.2399 11.0151 12.8608C11.0151 14.4818 13.2251 14.8411 15.184 14.8411C16.7409 14.8411 18.1371 14.6147 18.1371 14.6147C18.9837 14.6147 19.6104 13.6451 19.6104 12.8051C19.6104 11.9651 18.9837 11.1087 18.1371 11.1087C18.1371 11.107 16.7393 10.8806 15.184 10.8806Z" fill="#EDA600"/>
<path d="M16.5474 20.0467C15.8567 20.0467 12.3573 19.9926 11.2974 18.9311C11.112 18.7457 11.0234 18.5456 11.0234 18.3191C11.0267 17.4578 12.5016 16.964 15.0692 16.964C15.9847 16.964 16.6934 17.0296 16.7016 17.0296C16.7082 17.0296 16.7164 17.0313 16.723 17.0313C17.1069 17.0329 17.4695 17.1888 17.7402 17.4726C18.0141 17.7581 18.1634 18.1387 18.1634 18.5423C18.1602 19.3708 17.5121 20.0434 16.718 20.0434C16.7066 20.0467 16.6491 20.0467 16.5474 20.0467Z" fill="url(#paint3_radial_121_1663)"/>
<path d="M15.0707 17.2118C15.9714 17.2118 16.6719 17.2758 16.6785 17.2774C16.6933 17.2791 16.708 17.2791 16.7228 17.2791C17.0394 17.2807 17.338 17.4103 17.5628 17.6449C17.7925 17.8844 17.9188 18.2044 17.9172 18.544C17.9155 19.2363 17.3774 19.8007 16.713 19.8007H16.7015C16.6982 19.8007 16.6424 19.8023 16.5456 19.8023C13.5679 19.8023 11.9502 19.2396 11.4695 18.7589C11.2874 18.5768 11.2677 18.4226 11.2677 18.3225C11.2726 17.6367 12.7279 17.2118 15.0707 17.2118ZM15.0707 16.7196C13.3119 16.7196 10.7821 16.9559 10.7788 18.3192C10.7723 20.1994 15.5858 20.2929 16.5473 20.2929C16.6539 20.2929 16.713 20.2912 16.713 20.2912H16.7179C17.6498 20.2912 18.4061 19.5103 18.4094 18.544C18.4126 17.576 17.658 16.7885 16.7244 16.7852C16.7244 16.7869 16.0075 16.7196 15.0707 16.7196Z" fill="#EDA600"/>
<path d="M15.9336 17.4431C14.4587 17.4431 11.0298 17.2758 11.0298 15.7254C11.0298 14.4227 13.5022 14.2291 14.9771 14.2291C16.2814 14.2291 17.4053 14.3735 17.4167 14.3751C17.4266 14.3768 17.4381 14.3768 17.4479 14.3768C18.1321 14.3768 18.9294 14.7148 18.9294 15.668C18.9294 16.5703 18.2239 17.3906 17.4479 17.3906H17.4282C17.4217 17.3923 16.79 17.4431 15.9336 17.4431Z" fill="url(#paint4_radial_121_1663)"/>
<path d="M14.9771 13.9847V14.4769C16.2617 14.4769 17.3741 14.6197 17.3839 14.6213C17.4053 14.6246 17.4266 14.6246 17.4479 14.6246C18.0451 14.6246 18.6833 14.8986 18.6833 15.6697C18.6833 16.4293 18.0828 17.1462 17.4479 17.1462C17.4348 17.1462 17.4217 17.1462 17.4069 17.1479C17.4003 17.1479 16.7785 17.1987 15.932 17.1987C15.0378 17.1987 13.7598 17.1413 12.7475 16.8722C11.7713 16.6114 11.2759 16.2258 11.2759 15.7287C11.2759 15.5761 11.2759 15.1119 12.316 14.7854C12.9641 14.5819 13.8582 14.4786 14.9755 14.4786L14.9771 13.9847ZM14.9771 13.9847C13.0806 13.9847 10.7837 14.2833 10.7837 15.7271C10.7837 17.4284 13.9665 17.6909 15.9336 17.6909C16.813 17.6909 17.4479 17.6384 17.4479 17.6384C18.3732 17.6384 19.1755 16.6819 19.1755 15.6697C19.1755 14.6574 18.3732 14.1324 17.4479 14.1324C17.4479 14.1324 16.311 13.9847 14.9771 13.9847Z" fill="#EDA600"/>
<path d="M4.5593 18.8508L3.77344 15.75L3.44531 18.5391L4.5593 18.8508Z" fill="#EDA600"/>
<defs>
<radialGradient id="paint0_radial_121_1663" cx="0" cy="0" r="1" gradientUnits="userSpaceOnUse" gradientTransform="translate(8.49324 5.15177) rotate(90.1249) scale(14.2799 11.2425)">
<stop offset="0.6" stop-color="#FFCA28"/>
<stop offset="1" stop-color="#FFB300"/>
</radialGradient>
<radialGradient id="paint1_radial_121_1663" cx="0" cy="0" r="1" gradientUnits="userSpaceOnUse" gradientTransform="translate(16.8906 9.63656) rotate(176.727) scale(4.63832 2.2696)">
<stop offset="0.599" stop-color="#FFCA28"/>
<stop offset="1" stop-color="#FFB300"/>
</radialGradient>
<radialGradient id="paint2_radial_121_1663" cx="0" cy="0" r="1" gradientUnits="userSpaceOnUse" gradientTransform="translate(17.6234 12.8182) rotate(-179.937) scale(5.22018 2.09337)">
<stop offset="0.599" stop-color="#FFCA28"/>
<stop offset="1" stop-color="#FFB300"/>
</radialGradient>
<radialGradient id="paint3_radial_121_1663" cx="0" cy="0" r="1" gradientUnits="userSpaceOnUse" gradientTransform="translate(16.6054 18.4725) rotate(-179.726) scale(4.38394 2.28239)">
<stop offset="0.599" stop-color="#FFCA28"/>
<stop offset="1" stop-color="#FFB300"/>
</radialGradient>
<radialGradient id="paint4_radial_121_1663" cx="0" cy="0" r="1" gradientUnits="userSpaceOnUse" gradientTransform="translate(17.2298 15.7991) rotate(-179.934) scale(4.9947 2.07752)">
<stop offset="0.599" stop-color="#FFCA28"/>
<stop offset="1" stop-color="#FFB300"/>
</radialGradient>
</defs>
</svg>
